<svg width="200" height="200" viewBox="0 0 200 200" fill="none" xmlns="http://www.w3.org/2000/svg">
  <!-- Background circle -->
  <circle cx="100" cy="100" r="95" fill="#1a365d" stroke="#2d5a87" stroke-width="2"/>
  
  <!-- Main logo design -->
  <g transform="translate(50, 60)">
    <!-- N letter stylized -->
    <path d="M10 20 L10 60 L15 60 L35 30 L35 60 L40 60 L40 20 L35 20 L15 50 L15 20 Z" fill="#ff6b35"/>
    
    <!-- Tech circuit pattern -->
    <g stroke="#4a90e2" stroke-width="2" fill="none">
      <circle cx="60" cy="25" r="3"/>
      <circle cx="75" cy="35" r="2"/>
      <circle cx="85" cy="25" r="2"/>
      <line x1="63" y1="25" x2="73" y2="35"/>
      <line x1="77" y1="35" x2="83" y2="25"/>
      <rect x="55" y="45" width="35" height="15" rx="2"/>
      <line x1="60" y1="52" x2="85" y2="52"/>
    </g>
    
    <!-- Company name -->
    <text x="10" y="85" font-family="Arial, sans-serif" font-size="14" font-weight="bold" fill="#ffffff">NaniTech</text>
  </g>
  
  <!-- Decorative elements -->
  <circle cx="40" cy="40" r="2" fill="#ff6b35"/>
  <circle cx="160" cy="160" r="2" fill="#4a90e2"/>
  <circle cx="160" cy="40" r="1.5" fill="#ff6b35"/>
  <circle cx="40" cy="160" r="1.5" fill="#4a90e2"/>
</svg>
